<mxfile host="65bd71144e">
    <diagram id="53IQXVl9icCSp_Kw3Ib1" name="SampleBranch">
        <mxGraphModel dx="967" dy="1353" grid="1" gridSize="10" guides="1" tooltips="1" connect="1" arrows="1" fold="1" page="1" pageScale="1" pageWidth="1100" pageHeight="850" background="none" math="0" shadow="0">
            <root>
                <mxCell id="0"/>
                <mxCell id="1" parent="0"/>
                <mxCell id="uWUnNED6HEl2aK5fdaIb-7" value="Hotfix Commit" style="text;html=1;strokeColor=none;fillColor=none;align=center;verticalAlign=middle;whiteSpace=wrap;overflow=hidden;" parent="1" vertex="1">
                    <mxGeometry x="427.25" y="226" width="80" height="30" as="geometry"/>
                </mxCell>
                <mxCell id="uWUnNED6HEl2aK5fdaIb-8" value="" style="edgeStyle=orthogonalEdgeStyle;rounded=0;html=1;jettySize=auto;orthogonalLoop=1;plain-blue;endArrow=none;endFill=0;strokeWidth=4;strokeColor=#FFFFFF;entryX=0;entryY=0.5;entryDx=0;entryDy=0;entryPerimeter=0;" parent="1" source="uWUnNED6HEl2aK5fdaIb-10" target="9hBKPDzoitwpIBdzFDQ7-16" edge="1">
                    <mxGeometry x="292.25" y="211" as="geometry">
                        <mxPoint x="442.25" y="211" as="targetPoint"/>
                    </mxGeometry>
                </mxCell>
                <mxCell id="uWUnNED6HEl2aK5fdaIb-9" style="edgeStyle=orthogonalEdgeStyle;curved=1;rounded=0;html=1;exitX=1;exitY=0.5;exitPerimeter=0;entryX=0;entryY=0.5;entryPerimeter=0;endArrow=none;endFill=0;jettySize=auto;orthogonalLoop=1;strokeWidth=4;fontSize=15;" parent="1" source="uWUnNED6HEl2aK5fdaIb-10" target="uWUnNED6HEl2aK5fdaIb-15" edge="1">
                    <mxGeometry relative="1" as="geometry"/>
                </mxCell>
                <mxCell id="uWUnNED6HEl2aK5fdaIb-10" value="" style="verticalLabelPosition=bottom;verticalAlign=top;html=1;strokeWidth=4;shape=mxgraph.flowchart.on-page_reference;plain-blue;gradientColor=none;fillColor=#B5E3Fe;strokeColor=#000000;" parent="1" vertex="1">
                    <mxGeometry x="262.25" y="196" width="30" height="30" as="geometry"/>
                </mxCell>
                <mxCell id="uWUnNED6HEl2aK5fdaIb-80" value="" style="edgeStyle=orthogonalEdgeStyle;curved=1;rounded=0;orthogonalLoop=1;jettySize=auto;html=1;endArrow=none;endFill=0;strokeWidth=4;entryX=0;entryY=0.5;entryDx=0;entryDy=0;entryPerimeter=0;" parent="1" source="uWUnNED6HEl2aK5fdaIb-11" target="uWUnNED6HEl2aK5fdaIb-109" edge="1">
                    <mxGeometry relative="1" as="geometry">
                        <mxPoint x="734.4999999999995" y="211" as="targetPoint"/>
                    </mxGeometry>
                </mxCell>
                <mxCell id="uWUnNED6HEl2aK5fdaIb-105" style="edgeStyle=orthogonalEdgeStyle;curved=1;rounded=0;orthogonalLoop=1;jettySize=auto;html=1;exitX=1;exitY=0.5;exitDx=0;exitDy=0;exitPerimeter=0;entryX=0;entryY=0.5;entryDx=0;entryDy=0;entryPerimeter=0;endArrow=none;endFill=0;strokeWidth=4;fontFamily=Courier New;fontColor=#009900;" parent="1" source="uWUnNED6HEl2aK5fdaIb-11" target="uWUnNED6HEl2aK5fdaIb-104" edge="1">
                    <mxGeometry relative="1" as="geometry"/>
                </mxCell>
                <mxCell id="uWUnNED6HEl2aK5fdaIb-11" value="" style="verticalLabelPosition=bottom;verticalAlign=top;html=1;strokeWidth=4;shape=mxgraph.flowchart.on-page_reference;plain-blue;gradientColor=none;strokeColor=#000000;fillColor=#B5E3FE;" parent="1" vertex="1">
                    <mxGeometry x="622.25" y="196" width="30" height="30" as="geometry"/>
                </mxCell>
                <mxCell id="uWUnNED6HEl2aK5fdaIb-109" value="" style="verticalLabelPosition=bottom;verticalAlign=top;html=1;strokeWidth=4;shape=mxgraph.flowchart.on-page_reference;plain-blue;gradientColor=none;strokeColor=#33001A;fillColor=#B5E3FE;" parent="1" vertex="1">
                    <mxGeometry x="861.25" y="196" width="30" height="30" as="geometry"/>
                </mxCell>
                <mxCell id="uWUnNED6HEl2aK5fdaIb-12" value="" style="edgeStyle=orthogonalEdgeStyle;rounded=0;html=1;jettySize=auto;orthogonalLoop=1;strokeWidth=4;endArrow=none;endFill=0;" parent="1" target="uWUnNED6HEl2aK5fdaIb-10" edge="1">
                    <mxGeometry x="192.25" y="211" as="geometry">
                        <mxPoint x="150" y="211" as="sourcePoint"/>
                    </mxGeometry>
                </mxCell>
                <mxCell id="uWUnNED6HEl2aK5fdaIb-13" value="main" style="text;html=1;strokeColor=none;fillColor=none;align=center;verticalAlign=middle;whiteSpace=wrap;overflow=hidden;fontSize=14;fontStyle=1;fontFamily=Courier New;" parent="1" vertex="1">
                    <mxGeometry x="83" y="190" width="50" height="42" as="geometry"/>
                </mxCell>
                <mxCell id="uWUnNED6HEl2aK5fdaIb-14" style="edgeStyle=orthogonalEdgeStyle;curved=1;rounded=0;html=1;exitX=1;exitY=0.5;exitPerimeter=0;endArrow=none;endFill=0;jettySize=auto;orthogonalLoop=1;strokeWidth=4;fontSize=15;" parent="1" source="uWUnNED6HEl2aK5fdaIb-15" target="uWUnNED6HEl2aK5fdaIb-17" edge="1">
                    <mxGeometry relative="1" as="geometry"/>
                </mxCell>
                <mxCell id="uWUnNED6HEl2aK5fdaIb-15" value="" style="verticalLabelPosition=bottom;verticalAlign=top;html=1;strokeWidth=4;shape=mxgraph.flowchart.on-page_reference;plain-purple;gradientColor=none;strokeColor=#000000;fillColor=#D5E8D4;" parent="1" vertex="1">
                    <mxGeometry x="339.75" y="281" width="30" height="30" as="geometry"/>
                </mxCell>
                <mxCell id="uWUnNED6HEl2aK5fdaIb-16" style="edgeStyle=orthogonalEdgeStyle;curved=1;rounded=0;html=1;exitX=1;exitY=0.5;exitPerimeter=0;entryX=0;entryY=0.5;entryPerimeter=0;endArrow=none;endFill=0;jettySize=auto;orthogonalLoop=1;strokeWidth=4;fontSize=15;" parent="1" source="uWUnNED6HEl2aK5fdaIb-17" target="uWUnNED6HEl2aK5fdaIb-19" edge="1">
                    <mxGeometry relative="1" as="geometry"/>
                </mxCell>
                <mxCell id="uWUnNED6HEl2aK5fdaIb-17" value="" style="verticalLabelPosition=bottom;verticalAlign=top;html=1;strokeWidth=4;shape=mxgraph.flowchart.on-page_reference;plain-purple;gradientColor=none;strokeColor=#000000;fillColor=#D5E8D4;" parent="1" vertex="1">
                    <mxGeometry x="446.75" y="281" width="30" height="30" as="geometry"/>
                </mxCell>
                <mxCell id="uWUnNED6HEl2aK5fdaIb-18" style="edgeStyle=orthogonalEdgeStyle;curved=1;rounded=0;html=1;exitX=1;exitY=0.5;exitPerimeter=0;entryX=0;entryY=0.5;entryPerimeter=0;endArrow=none;endFill=0;jettySize=auto;orthogonalLoop=1;strokeWidth=4;fontSize=15;" parent="1" source="uWUnNED6HEl2aK5fdaIb-19" target="uWUnNED6HEl2aK5fdaIb-11" edge="1">
                    <mxGeometry relative="1" as="geometry"/>
                </mxCell>
                <mxCell id="uWUnNED6HEl2aK5fdaIb-19" value="" style="verticalLabelPosition=bottom;verticalAlign=top;html=1;strokeWidth=4;shape=mxgraph.flowchart.on-page_reference;plain-purple;gradientColor=none;strokeColor=#000000;fillColor=#D5E8D4;" parent="1" vertex="1">
                    <mxGeometry x="549.75" y="281" width="30" height="30" as="geometry"/>
                </mxCell>
                <mxCell id="uWUnNED6HEl2aK5fdaIb-20" value="1.1.0-release" style="text;html=1;strokeColor=none;fillColor=none;align=left;verticalAlign=middle;whiteSpace=wrap;overflow=hidden;fontSize=14;fontStyle=1;fontFamily=Courier New;" parent="1" vertex="1">
                    <mxGeometry x="88.75" y="286" width="240" height="20" as="geometry"/>
                </mxCell>
                <mxCell id="uWUnNED6HEl2aK5fdaIb-71" value="" style="edgeStyle=orthogonalEdgeStyle;rounded=0;orthogonalLoop=1;jettySize=auto;html=1;endArrow=none;endFill=0;strokeWidth=4;" parent="1" source="uWUnNED6HEl2aK5fdaIb-69" target="uWUnNED6HEl2aK5fdaIb-70" edge="1">
                    <mxGeometry relative="1" as="geometry"/>
                </mxCell>
                <mxCell id="uWUnNED6HEl2aK5fdaIb-75" style="edgeStyle=orthogonalEdgeStyle;rounded=0;orthogonalLoop=1;jettySize=auto;html=1;entryX=1;entryY=0.5;entryDx=0;entryDy=0;entryPerimeter=0;endArrow=none;endFill=0;strokeWidth=4;curved=1;" parent="1" source="uWUnNED6HEl2aK5fdaIb-69" target="uWUnNED6HEl2aK5fdaIb-15" edge="1">
                    <mxGeometry relative="1" as="geometry"/>
                </mxCell>
                <mxCell id="uWUnNED6HEl2aK5fdaIb-94" style="edgeStyle=orthogonalEdgeStyle;curved=1;rounded=0;orthogonalLoop=1;jettySize=auto;html=1;exitX=1;exitY=0.5;exitDx=0;exitDy=0;exitPerimeter=0;entryX=0;entryY=0.5;entryDx=0;entryDy=0;entryPerimeter=0;endArrow=none;endFill=0;strokeWidth=4;fontFamily=Courier New;fontColor=#009900;" parent="1" source="uWUnNED6HEl2aK5fdaIb-69" target="uWUnNED6HEl2aK5fdaIb-82" edge="1">
                    <mxGeometry relative="1" as="geometry"/>
                </mxCell>
                <mxCell id="uWUnNED6HEl2aK5fdaIb-69" value="" style="verticalLabelPosition=bottom;verticalAlign=top;html=1;strokeWidth=4;shape=mxgraph.flowchart.on-page_reference;plain-purple;gradientColor=none;strokeColor=#000000;fillColor=#D5E8D4;" parent="1" vertex="1">
                    <mxGeometry x="416.75" y="361" width="30" height="30" as="geometry"/>
                </mxCell>
                <mxCell id="uWUnNED6HEl2aK5fdaIb-78" value="" style="edgeStyle=orthogonalEdgeStyle;curved=1;rounded=0;orthogonalLoop=1;jettySize=auto;html=1;endArrow=none;endFill=0;strokeWidth=4;" parent="1" source="uWUnNED6HEl2aK5fdaIb-70" target="uWUnNED6HEl2aK5fdaIb-77" edge="1">
                    <mxGeometry relative="1" as="geometry"/>
                </mxCell>
                <mxCell id="uWUnNED6HEl2aK5fdaIb-70" value="" style="verticalLabelPosition=bottom;verticalAlign=top;html=1;strokeWidth=4;shape=mxgraph.flowchart.on-page_reference;plain-purple;gradientColor=none;strokeColor=#000000;fillColor=#D5E8D4;" parent="1" vertex="1">
                    <mxGeometry x="514.75" y="361" width="30" height="30" as="geometry"/>
                </mxCell>
                <mxCell id="uWUnNED6HEl2aK5fdaIb-96" value="" style="edgeStyle=orthogonalEdgeStyle;curved=1;rounded=0;orthogonalLoop=1;jettySize=auto;html=1;endArrow=none;endFill=0;strokeWidth=4;fontFamily=Courier New;fontColor=#009900;" parent="1" source="uWUnNED6HEl2aK5fdaIb-77" target="uWUnNED6HEl2aK5fdaIb-95" edge="1">
                    <mxGeometry relative="1" as="geometry"/>
                </mxCell>
                <mxCell id="uWUnNED6HEl2aK5fdaIb-77" value="" style="verticalLabelPosition=bottom;verticalAlign=top;html=1;strokeWidth=4;shape=mxgraph.flowchart.on-page_reference;plain-purple;gradientColor=none;strokeColor=#000000;fillColor=#D5E8D4;" parent="1" vertex="1">
                    <mxGeometry x="594.75" y="361" width="30" height="30" as="geometry"/>
                </mxCell>
                <mxCell id="uWUnNED6HEl2aK5fdaIb-108" style="edgeStyle=orthogonalEdgeStyle;curved=1;rounded=0;orthogonalLoop=1;jettySize=auto;html=1;entryX=0;entryY=0.5;entryDx=0;entryDy=0;entryPerimeter=0;endArrow=none;endFill=0;strokeWidth=4;fontFamily=Courier New;fontColor=#009900;" parent="1" source="uWUnNED6HEl2aK5fdaIb-95" target="uWUnNED6HEl2aK5fdaIb-106" edge="1">
                    <mxGeometry relative="1" as="geometry"/>
                </mxCell>
                <mxCell id="uWUnNED6HEl2aK5fdaIb-95" value="" style="verticalLabelPosition=bottom;verticalAlign=top;html=1;strokeWidth=4;shape=mxgraph.flowchart.on-page_reference;plain-purple;gradientColor=none;strokeColor=#000000;fillColor=#D5E8D4;" parent="1" vertex="1">
                    <mxGeometry x="696.75" y="361" width="30" height="30" as="geometry"/>
                </mxCell>
                <mxCell id="uWUnNED6HEl2aK5fdaIb-76" value="develop" style="text;html=1;strokeColor=none;fillColor=none;align=left;verticalAlign=middle;whiteSpace=wrap;overflow=hidden;fontSize=14;fontStyle=1;fontFamily=Courier New;" parent="1" vertex="1">
                    <mxGeometry x="87.75" y="364" width="91" height="20" as="geometry"/>
                </mxCell>
                <mxCell id="uWUnNED6HEl2aK5fdaIb-81" value="" style="edgeStyle=orthogonalEdgeStyle;rounded=0;orthogonalLoop=1;jettySize=auto;html=1;endArrow=none;endFill=0;strokeWidth=4;" parent="1" source="uWUnNED6HEl2aK5fdaIb-82" target="uWUnNED6HEl2aK5fdaIb-84" edge="1">
                    <mxGeometry relative="1" as="geometry"/>
                </mxCell>
                <mxCell id="uWUnNED6HEl2aK5fdaIb-82" value="" style="verticalLabelPosition=bottom;verticalAlign=top;html=1;strokeWidth=4;shape=mxgraph.flowchart.on-page_reference;plain-purple;gradientColor=none;strokeColor=#000000;fillColor=#D5E8D4;" parent="1" vertex="1">
                    <mxGeometry x="500.75" y="440" width="30" height="30" as="geometry"/>
                </mxCell>
                <mxCell id="uWUnNED6HEl2aK5fdaIb-97" style="edgeStyle=orthogonalEdgeStyle;curved=1;rounded=0;orthogonalLoop=1;jettySize=auto;html=1;exitX=1;exitY=0.5;exitDx=0;exitDy=0;exitPerimeter=0;entryX=0;entryY=0.5;entryDx=0;entryDy=0;entryPerimeter=0;endArrow=none;endFill=0;strokeWidth=4;fontFamily=Courier New;fontColor=#009900;" parent="1" source="uWUnNED6HEl2aK5fdaIb-84" target="uWUnNED6HEl2aK5fdaIb-95" edge="1">
                    <mxGeometry relative="1" as="geometry"/>
                </mxCell>
                <mxCell id="uWUnNED6HEl2aK5fdaIb-84" value="" style="verticalLabelPosition=bottom;verticalAlign=top;html=1;strokeWidth=4;shape=mxgraph.flowchart.on-page_reference;plain-purple;gradientColor=none;strokeColor=#000000;fillColor=#D5E8D4;" parent="1" vertex="1">
                    <mxGeometry x="611.75" y="440" width="30" height="30" as="geometry"/>
                </mxCell>
                <mxCell id="uWUnNED6HEl2aK5fdaIb-86" value="JIRA-35--example feature" style="text;html=1;strokeColor=none;fillColor=none;align=left;verticalAlign=middle;whiteSpace=wrap;overflow=hidden;fontSize=14;fontStyle=1;fontFamily=Courier New;" parent="1" vertex="1">
                    <mxGeometry x="87.5" y="445" width="240" height="20" as="geometry"/>
                </mxCell>
                <mxCell id="uWUnNED6HEl2aK5fdaIb-87" value="The development or sprint branch" style="text;html=1;strokeColor=none;fillColor=none;align=left;verticalAlign=middle;whiteSpace=wrap;overflow=hidden;fontSize=14;fontStyle=0;fontColor=#009900;" parent="1" vertex="1">
                    <mxGeometry x="85.75" y="384" width="240" height="20" as="geometry"/>
                </mxCell>
                <mxCell id="uWUnNED6HEl2aK5fdaIb-88" value="Your feature branch" style="text;html=1;strokeColor=none;fillColor=none;align=left;verticalAlign=middle;whiteSpace=wrap;overflow=hidden;fontSize=14;fontStyle=0;fontColor=#009900;" parent="1" vertex="1">
                    <mxGeometry x="85.75" y="465" width="240" height="20" as="geometry"/>
                </mxCell>
                <mxCell id="uWUnNED6HEl2aK5fdaIb-89" value="The release branch" style="text;html=1;strokeColor=none;fillColor=none;align=left;verticalAlign=middle;whiteSpace=wrap;overflow=hidden;fontSize=14;fontStyle=0;fontColor=#009900;" parent="1" vertex="1">
                    <mxGeometry x="86.75" y="306" width="240" height="20" as="geometry"/>
                </mxCell>
                <mxCell id="uWUnNED6HEl2aK5fdaIb-90" value="The main branch&lt;br&gt;" style="text;html=1;strokeColor=none;fillColor=none;align=left;verticalAlign=middle;whiteSpace=wrap;overflow=hidden;fontSize=14;fontStyle=0;fontColor=#009900;" parent="1" vertex="1">
                    <mxGeometry x="88.25" y="220" width="146.75" height="20" as="geometry"/>
                </mxCell>
                <mxCell id="uWUnNED6HEl2aK5fdaIb-91" value="" style="endArrow=classic;html=1;strokeWidth=1;fontFamily=Courier New;fontColor=#009900;" parent="1" edge="1">
                    <mxGeometry width="50" height="50" relative="1" as="geometry">
                        <mxPoint x="306.75" y="454.5" as="sourcePoint"/>
                        <mxPoint x="456.75" y="455" as="targetPoint"/>
                    </mxGeometry>
                </mxCell>
                <mxCell id="uWUnNED6HEl2aK5fdaIb-92" value="" style="endArrow=classic;html=1;strokeWidth=1;fontFamily=Courier New;fontColor=#009900;" parent="1" edge="1">
                    <mxGeometry width="50" height="50" relative="1" as="geometry">
                        <mxPoint x="186.75" y="374" as="sourcePoint"/>
                        <mxPoint x="376.75" y="374" as="targetPoint"/>
                    </mxGeometry>
                </mxCell>
                <mxCell id="uWUnNED6HEl2aK5fdaIb-93" value="" style="endArrow=classic;html=1;strokeWidth=1;fontFamily=Courier New;fontColor=#009900;" parent="1" edge="1">
                    <mxGeometry width="50" height="50" relative="1" as="geometry">
                        <mxPoint x="216.75" y="296" as="sourcePoint"/>
                        <mxPoint x="296.75" y="296" as="targetPoint"/>
                    </mxGeometry>
                </mxCell>
                <mxCell id="uWUnNED6HEl2aK5fdaIb-101" value="Tag: 1.1.0" style="text;html=1;strokeColor=none;fillColor=none;align=center;verticalAlign=middle;whiteSpace=wrap;overflow=hidden;fontSize=14;" parent="1" vertex="1">
                    <mxGeometry x="590.25" y="170" width="110" height="20" as="geometry"/>
                </mxCell>
                <mxCell id="uWUnNED6HEl2aK5fdaIb-103" value="Tag: 1.0.0" style="text;html=1;strokeColor=none;fillColor=none;align=center;verticalAlign=middle;whiteSpace=wrap;overflow=hidden;fontSize=14;" parent="1" vertex="1">
                    <mxGeometry x="242.25" y="170" width="70" height="20" as="geometry"/>
                </mxCell>
                <mxCell id="uWUnNED6HEl2aK5fdaIb-107" value="" style="edgeStyle=orthogonalEdgeStyle;curved=1;rounded=0;orthogonalLoop=1;jettySize=auto;html=1;endArrow=none;endFill=0;strokeWidth=4;fontFamily=Courier New;fontColor=#009900;" parent="1" source="uWUnNED6HEl2aK5fdaIb-104" target="uWUnNED6HEl2aK5fdaIb-106" edge="1">
                    <mxGeometry relative="1" as="geometry"/>
                </mxCell>
                <mxCell id="uWUnNED6HEl2aK5fdaIb-104" value="" style="verticalLabelPosition=bottom;verticalAlign=top;html=1;strokeWidth=4;shape=mxgraph.flowchart.on-page_reference;plain-purple;gradientColor=none;strokeColor=#000000;fillColor=#D5E8D4;" parent="1" vertex="1">
                    <mxGeometry x="696.75" y="281" width="30" height="30" as="geometry"/>
                </mxCell>
                <mxCell id="uWUnNED6HEl2aK5fdaIb-115" style="edgeStyle=orthogonalEdgeStyle;curved=1;rounded=0;orthogonalLoop=1;jettySize=auto;html=1;entryX=0;entryY=0.5;entryDx=0;entryDy=0;entryPerimeter=0;endArrow=none;endFill=0;strokeWidth=4;fontFamily=Courier New;fontColor=#009900;" parent="1" source="uWUnNED6HEl2aK5fdaIb-106" target="uWUnNED6HEl2aK5fdaIb-109" edge="1">
                    <mxGeometry relative="1" as="geometry"/>
                </mxCell>
                <mxCell id="uWUnNED6HEl2aK5fdaIb-106" value="" style="verticalLabelPosition=bottom;verticalAlign=top;html=1;strokeWidth=4;shape=mxgraph.flowchart.on-page_reference;plain-purple;gradientColor=none;strokeColor=#000000;fillColor=#D5E8D4;" parent="1" vertex="1">
                    <mxGeometry x="786.75" y="281" width="30" height="30" as="geometry"/>
                </mxCell>
                <mxCell id="uWUnNED6HEl2aK5fdaIb-116" value="Tag: 1.2.0" style="text;html=1;strokeColor=none;fillColor=none;align=center;verticalAlign=middle;whiteSpace=wrap;overflow=hidden;fontSize=14;" parent="1" vertex="1">
                    <mxGeometry x="812.25" y="168" width="110" height="20" as="geometry"/>
                </mxCell>
                <mxCell id="uWUnNED6HEl2aK5fdaIb-117" value="" style="endArrow=classic;html=1;strokeWidth=1;fontFamily=Courier New;fontColor=#009900;exitX=0.5;exitY=0;exitDx=0;exitDy=0;" parent="1" source="fSnZ5vnYTslC5NarKmr_-5" edge="1">
                    <mxGeometry width="50" height="50" relative="1" as="geometry">
                        <mxPoint x="711.25" y="635.5" as="sourcePoint"/>
                        <mxPoint x="711.25" y="404" as="targetPoint"/>
                    </mxGeometry>
                </mxCell>
                <mxCell id="fSnZ5vnYTslC5NarKmr_-1" value="" style="endArrow=classic;html=1;strokeWidth=1;fontFamily=Courier New;fontColor=#009900;" parent="1" edge="1">
                    <mxGeometry width="50" height="50" relative="1" as="geometry">
                        <mxPoint x="801.75" y="375" as="sourcePoint"/>
                        <mxPoint x="801.75" y="325" as="targetPoint"/>
                    </mxGeometry>
                </mxCell>
                <mxCell id="fSnZ5vnYTslC5NarKmr_-4" value="&lt;span style=&quot;text-align: center&quot;&gt;Feel free to add notes here about the process of merging into the release branch.&lt;br&gt;&lt;/span&gt;" style="text;html=1;strokeColor=none;fillColor=none;align=left;verticalAlign=middle;whiteSpace=wrap;overflow=hidden;fontSize=12;fontStyle=0;fontColor=#000000;" parent="1" vertex="1">
                    <mxGeometry x="776.75" y="375" width="163.25" height="66" as="geometry"/>
                </mxCell>
                <mxCell id="fSnZ5vnYTslC5NarKmr_-5" value="&lt;div style=&quot;&quot;&gt;&lt;span&gt;Feel free to add notes here about the process of merging feature branches.&lt;/span&gt;&lt;/div&gt;" style="text;html=1;strokeColor=none;fillColor=none;align=left;verticalAlign=middle;whiteSpace=wrap;overflow=hidden;fontSize=12;fontStyle=0;fontColor=#000000;" parent="1" vertex="1">
                    <mxGeometry x="502.63" y="485" width="418.25" height="36" as="geometry"/>
                </mxCell>
                <mxCell id="fSnZ5vnYTslC5NarKmr_-9" value="" style="edgeStyle=orthogonalEdgeStyle;rounded=0;orthogonalLoop=1;jettySize=auto;html=1;fontSize=12;fontColor=#000000;entryX=0;entryY=0.5;entryDx=0;entryDy=0;" parent="1" source="fSnZ5vnYTslC5NarKmr_-8" target="uWUnNED6HEl2aK5fdaIb-103" edge="1">
                    <mxGeometry relative="1" as="geometry">
                        <mxPoint x="222.25" y="180" as="targetPoint"/>
                        <Array as="points">
                            <mxPoint x="222.25" y="180"/>
                            <mxPoint x="222.25" y="180"/>
                        </Array>
                    </mxGeometry>
                </mxCell>
                <mxCell id="fSnZ5vnYTslC5NarKmr_-8" value="&lt;span style=&quot;text-align: center; font-size: 11px;&quot;&gt;Each tag represents a production release.&lt;/span&gt;" style="text;html=1;strokeColor=none;fillColor=none;align=left;verticalAlign=middle;whiteSpace=wrap;overflow=hidden;fontSize=11;fontStyle=0;fontColor=#000000;" parent="1" vertex="1">
                    <mxGeometry x="94.5" y="158" width="120" height="38" as="geometry"/>
                </mxCell>
                <mxCell id="fSnZ5vnYTslC5NarKmr_-11" value="Example Git Branching Diagrams" style="text;html=1;strokeColor=none;fillColor=none;align=center;verticalAlign=middle;whiteSpace=wrap;rounded=0;fontSize=33;fontColor=#000000;" parent="1" vertex="1">
                    <mxGeometry x="281" y="20" width="538" height="40" as="geometry"/>
                </mxCell>
                <UserObject label="Example diagram for a workflow similar to &quot;Git-flow&quot; :" link="https://nvie.com/posts/a-successful-git-branching-model/" id="9hBKPDzoitwpIBdzFDQ7-2">
                    <mxCell style="text;whiteSpace=wrap;html=1;fontStyle=1;fontSize=16;" parent="1" vertex="1">
                        <mxGeometry x="82.25" y="90" width="427.75" height="20" as="geometry"/>
                    </mxCell>
                </UserObject>
                <UserObject label="&lt;a href=&quot;https://nvie.com/posts/a-successful-git-branching-model/&quot;&gt;https://nvie.com/posts/a-successful-git-branching-model/&lt;/a&gt;" link="https://nvie.com/posts/a-successful-git-branching-model/" id="9hBKPDzoitwpIBdzFDQ7-3">
                    <mxCell style="text;whiteSpace=wrap;html=1;" parent="1" vertex="1">
                        <mxGeometry x="115" y="115" width="355" height="20" as="geometry"/>
                    </mxCell>
                </UserObject>
                <UserObject label="Example diagram for a workflow with a simpler branching model:" link="https://nvie.com/posts/a-successful-git-branching-model/" id="9hBKPDzoitwpIBdzFDQ7-6">
                    <mxCell style="text;whiteSpace=wrap;html=1;fontStyle=1;fontSize=17;" parent="1" vertex="1">
                        <mxGeometry x="80" y="580" width="542.25" height="30" as="geometry"/>
                    </mxCell>
                </UserObject>
                <UserObject label="See:" link="https://nvie.com/posts/a-successful-git-branching-model/" id="9hBKPDzoitwpIBdzFDQ7-7">
                    <mxCell style="text;whiteSpace=wrap;html=1;" parent="1" vertex="1">
                        <mxGeometry x="82.25" y="115" width="32.75" height="20" as="geometry"/>
                    </mxCell>
                </UserObject>
                <UserObject label="&lt;a href=&quot;https://gist.github.com/jbenet/ee6c9ac48068889b0912&quot;&gt;https://gist.github.com/jbenet/ee6c9ac48068889b0912&lt;/a&gt;" link="https://gist.github.com/jbenet/ee6c9ac48068889b0912" id="9hBKPDzoitwpIBdzFDQ7-8">
                    <mxCell style="text;whiteSpace=wrap;html=1;" parent="1" vertex="1">
                        <mxGeometry x="114.25" y="610" width="298" height="20" as="geometry"/>
                    </mxCell>
                </UserObject>
                <UserObject label="See:" link="https://nvie.com/posts/a-successful-git-branching-model/" id="9hBKPDzoitwpIBdzFDQ7-10">
                    <mxCell style="text;whiteSpace=wrap;html=1;" parent="1" vertex="1">
                        <mxGeometry x="81.5" y="610" width="32.75" height="20" as="geometry"/>
                    </mxCell>
                </UserObject>
                <mxCell id="9hBKPDzoitwpIBdzFDQ7-14" value="" style="endArrow=classic;html=1;strokeWidth=1;fontFamily=Courier New;fontColor=#009900;" parent="1" edge="1">
                    <mxGeometry width="50" height="50" relative="1" as="geometry">
                        <mxPoint x="877.25" y="280" as="sourcePoint"/>
                        <mxPoint x="877.25" y="240" as="targetPoint"/>
                    </mxGeometry>
                </mxCell>
                <mxCell id="9hBKPDzoitwpIBdzFDQ7-15" value="&lt;span style=&quot;text-align: center&quot;&gt;Feel free to add notes here about the process of merging into the release branch.&lt;br&gt;&lt;br&gt;&lt;/span&gt;" style="text;html=1;strokeColor=none;fillColor=none;align=left;verticalAlign=middle;whiteSpace=wrap;overflow=hidden;fontSize=12;fontStyle=0;fontColor=#000000;" parent="1" vertex="1">
                    <mxGeometry x="852.25" y="281" width="167.75" height="81" as="geometry"/>
                </mxCell>
                <mxCell id="9hBKPDzoitwpIBdzFDQ7-21" value="" style="edgeStyle=orthogonalEdgeStyle;rounded=0;orthogonalLoop=1;jettySize=auto;html=1;fontSize=15;endArrow=none;endFill=0;strokeWidth=4;entryX=0;entryY=0.5;entryDx=0;entryDy=0;entryPerimeter=0;" parent="1" source="9hBKPDzoitwpIBdzFDQ7-16" target="uWUnNED6HEl2aK5fdaIb-11" edge="1">
                    <mxGeometry relative="1" as="geometry">
                        <mxPoint x="560.25" y="211" as="targetPoint"/>
                    </mxGeometry>
                </mxCell>
                <mxCell id="9hBKPDzoitwpIBdzFDQ7-16" value="" style="verticalLabelPosition=bottom;verticalAlign=top;html=1;strokeWidth=4;shape=mxgraph.flowchart.on-page_reference;plain-blue;gradientColor=#EA6B66;strokeColor=#B85450;fillColor=#F8CECC;" parent="1" vertex="1">
                    <mxGeometry x="452.25" y="196" width="30" height="30" as="geometry"/>
                </mxCell>
                <mxCell id="9hBKPDzoitwpIBdzFDQ7-23" value="" style="edgeStyle=orthogonalEdgeStyle;rounded=0;html=1;jettySize=auto;orthogonalLoop=1;plain-blue;endArrow=none;endFill=0;strokeWidth=4;strokeColor=#000000;" parent="1" source="9hBKPDzoitwpIBdzFDQ7-25" target="9hBKPDzoitwpIBdzFDQ7-26" edge="1">
                    <mxGeometry x="294.5" y="700" as="geometry"/>
                </mxCell>
                <mxCell id="9hBKPDzoitwpIBdzFDQ7-24" style="edgeStyle=orthogonalEdgeStyle;curved=1;rounded=0;html=1;exitX=1;exitY=0.5;exitPerimeter=0;entryX=0;entryY=0.5;entryPerimeter=0;endArrow=none;endFill=0;jettySize=auto;orthogonalLoop=1;strokeWidth=4;fontSize=15;" parent="1" source="9hBKPDzoitwpIBdzFDQ7-25" target="9hBKPDzoitwpIBdzFDQ7-30" edge="1">
                    <mxGeometry relative="1" as="geometry"/>
                </mxCell>
                <mxCell id="9hBKPDzoitwpIBdzFDQ7-25" value="" style="verticalLabelPosition=bottom;verticalAlign=top;html=1;strokeWidth=4;shape=mxgraph.flowchart.on-page_reference;plain-blue;gradientColor=none;fillColor=#B5E3Fe;strokeColor=#000000;" parent="1" vertex="1">
                    <mxGeometry x="264.5" y="685" width="30" height="30" as="geometry"/>
                </mxCell>
                <mxCell id="9hBKPDzoitwpIBdzFDQ7-41" value="" style="edgeStyle=orthogonalEdgeStyle;curved=1;rounded=0;orthogonalLoop=1;jettySize=auto;html=1;endArrow=none;endFill=0;strokeWidth=4;fontFamily=Courier New;fontSize=16;" parent="1" source="9hBKPDzoitwpIBdzFDQ7-26" target="9hBKPDzoitwpIBdzFDQ7-40" edge="1">
                    <mxGeometry relative="1" as="geometry"/>
                </mxCell>
                <mxCell id="9hBKPDzoitwpIBdzFDQ7-26" value="" style="verticalLabelPosition=bottom;verticalAlign=top;html=1;strokeWidth=4;shape=mxgraph.flowchart.on-page_reference;plain-blue;gradientColor=none;strokeColor=#000000;" parent="1" vertex="1">
                    <mxGeometry x="554.5" y="685" width="30" height="30" as="geometry"/>
                </mxCell>
                <mxCell id="9hBKPDzoitwpIBdzFDQ7-43" value="" style="edgeStyle=orthogonalEdgeStyle;curved=1;rounded=0;orthogonalLoop=1;jettySize=auto;html=1;endArrow=none;endFill=0;strokeWidth=4;fontFamily=Courier New;fontSize=16;" parent="1" source="9hBKPDzoitwpIBdzFDQ7-40" target="9hBKPDzoitwpIBdzFDQ7-42" edge="1">
                    <mxGeometry relative="1" as="geometry"/>
                </mxCell>
                <mxCell id="9hBKPDzoitwpIBdzFDQ7-52" value="" style="edgeStyle=orthogonalEdgeStyle;curved=1;rounded=0;orthogonalLoop=1;jettySize=auto;html=1;endArrow=none;endFill=0;strokeWidth=4;fontFamily=Courier New;fontSize=16;entryX=0;entryY=0.5;entryDx=0;entryDy=0;entryPerimeter=0;" parent="1" source="9hBKPDzoitwpIBdzFDQ7-40" target="9hBKPDzoitwpIBdzFDQ7-50" edge="1">
                    <mxGeometry relative="1" as="geometry">
                        <mxPoint x="679.5" y="795" as="targetPoint"/>
                    </mxGeometry>
                </mxCell>
                <mxCell id="9hBKPDzoitwpIBdzFDQ7-40" value="" style="verticalLabelPosition=bottom;verticalAlign=top;html=1;strokeWidth=4;shape=mxgraph.flowchart.on-page_reference;plain-blue;gradientColor=none;strokeColor=#000000;" parent="1" vertex="1">
                    <mxGeometry x="670" y="685" width="30" height="30" as="geometry"/>
                </mxCell>
                <mxCell id="9hBKPDzoitwpIBdzFDQ7-56" value="" style="edgeStyle=orthogonalEdgeStyle;curved=1;rounded=0;orthogonalLoop=1;jettySize=auto;html=1;endArrow=none;endFill=0;strokeWidth=4;fontFamily=Courier New;fontSize=16;" parent="1" source="9hBKPDzoitwpIBdzFDQ7-42" target="9hBKPDzoitwpIBdzFDQ7-55" edge="1">
                    <mxGeometry relative="1" as="geometry"/>
                </mxCell>
                <mxCell id="9hBKPDzoitwpIBdzFDQ7-42" value="" style="verticalLabelPosition=bottom;verticalAlign=top;html=1;strokeWidth=4;shape=mxgraph.flowchart.on-page_reference;plain-blue;gradientColor=none;strokeColor=#000000;" parent="1" vertex="1">
                    <mxGeometry x="769" y="685" width="30" height="30" as="geometry"/>
                </mxCell>
                <mxCell id="9hBKPDzoitwpIBdzFDQ7-55" value="" style="verticalLabelPosition=bottom;verticalAlign=top;html=1;strokeWidth=4;shape=mxgraph.flowchart.on-page_reference;plain-blue;gradientColor=none;strokeColor=#000000;" parent="1" vertex="1">
                    <mxGeometry x="861.25" y="685" width="30" height="30" as="geometry"/>
                </mxCell>
                <mxCell id="9hBKPDzoitwpIBdzFDQ7-27" value="" style="edgeStyle=orthogonalEdgeStyle;rounded=0;html=1;jettySize=auto;orthogonalLoop=1;strokeWidth=4;endArrow=none;endFill=0;" parent="1" target="9hBKPDzoitwpIBdzFDQ7-25" edge="1">
                    <mxGeometry x="194.5" y="700" as="geometry">
                        <mxPoint x="150" y="700" as="sourcePoint"/>
                    </mxGeometry>
                </mxCell>
                <mxCell id="9hBKPDzoitwpIBdzFDQ7-28" value="main" style="text;html=1;strokeColor=none;fillColor=none;align=center;verticalAlign=middle;whiteSpace=wrap;overflow=hidden;fontSize=14;fontStyle=1;fontFamily=Courier New;" parent="1" vertex="1">
                    <mxGeometry x="80" y="690" width="50" height="20" as="geometry"/>
                </mxCell>
                <mxCell id="9hBKPDzoitwpIBdzFDQ7-29" style="edgeStyle=orthogonalEdgeStyle;curved=1;rounded=0;html=1;exitX=1;exitY=0.5;exitPerimeter=0;entryX=0;entryY=0.5;entryPerimeter=0;endArrow=none;endFill=0;jettySize=auto;orthogonalLoop=1;strokeWidth=4;fontSize=15;" parent="1" source="9hBKPDzoitwpIBdzFDQ7-30" target="9hBKPDzoitwpIBdzFDQ7-32" edge="1">
                    <mxGeometry relative="1" as="geometry"/>
                </mxCell>
                <mxCell id="9hBKPDzoitwpIBdzFDQ7-30" value="" style="verticalLabelPosition=bottom;verticalAlign=top;html=1;strokeWidth=4;shape=mxgraph.flowchart.on-page_reference;plain-purple;gradientColor=none;strokeColor=#000000;" parent="1" vertex="1">
                    <mxGeometry x="337.5" y="765" width="30" height="30" as="geometry"/>
                </mxCell>
                <mxCell id="9hBKPDzoitwpIBdzFDQ7-31" style="edgeStyle=orthogonalEdgeStyle;curved=1;rounded=0;html=1;exitX=1;exitY=0.5;exitPerimeter=0;entryX=0;entryY=0.5;entryPerimeter=0;endArrow=none;endFill=0;jettySize=auto;orthogonalLoop=1;strokeWidth=4;fontSize=15;" parent="1" source="9hBKPDzoitwpIBdzFDQ7-32" target="9hBKPDzoitwpIBdzFDQ7-34" edge="1">
                    <mxGeometry relative="1" as="geometry"/>
                </mxCell>
                <mxCell id="9hBKPDzoitwpIBdzFDQ7-32" value="" style="verticalLabelPosition=bottom;verticalAlign=top;html=1;strokeWidth=4;shape=mxgraph.flowchart.on-page_reference;plain-purple;gradientColor=none;strokeColor=#000000;" parent="1" vertex="1">
                    <mxGeometry x="409.5" y="765" width="30" height="30" as="geometry"/>
                </mxCell>
                <mxCell id="9hBKPDzoitwpIBdzFDQ7-33" style="edgeStyle=orthogonalEdgeStyle;curved=1;rounded=0;html=1;exitX=1;exitY=0.5;exitPerimeter=0;entryX=0;entryY=0.5;entryPerimeter=0;endArrow=none;endFill=0;jettySize=auto;orthogonalLoop=1;strokeWidth=4;fontSize=15;" parent="1" source="9hBKPDzoitwpIBdzFDQ7-34" target="9hBKPDzoitwpIBdzFDQ7-26" edge="1">
                    <mxGeometry relative="1" as="geometry"/>
                </mxCell>
                <mxCell id="9hBKPDzoitwpIBdzFDQ7-34" value="" style="verticalLabelPosition=bottom;verticalAlign=top;html=1;strokeWidth=4;shape=mxgraph.flowchart.on-page_reference;plain-purple;gradientColor=none;strokeColor=#000000;" parent="1" vertex="1">
                    <mxGeometry x="482.5" y="765" width="30" height="30" as="geometry"/>
                </mxCell>
                <mxCell id="9hBKPDzoitwpIBdzFDQ7-35" value="JIRA-35--example-feature" style="text;html=1;strokeColor=none;fillColor=none;align=left;verticalAlign=middle;whiteSpace=wrap;overflow=hidden;fontSize=14;fontStyle=1;fontFamily=Courier New;" parent="1" vertex="1">
                    <mxGeometry x="87.5" y="770" width="240" height="20" as="geometry"/>
                </mxCell>
                <mxCell id="9hBKPDzoitwpIBdzFDQ7-37" value="The main branch&lt;br&gt;" style="text;html=1;strokeColor=none;fillColor=none;align=left;verticalAlign=middle;whiteSpace=wrap;overflow=hidden;fontSize=14;fontStyle=0;fontColor=#009900;" parent="1" vertex="1">
                    <mxGeometry x="85.25" y="710" width="132.25" height="20" as="geometry"/>
                </mxCell>
                <mxCell id="9hBKPDzoitwpIBdzFDQ7-38" value="Your feature branch" style="text;html=1;strokeColor=none;fillColor=none;align=left;verticalAlign=middle;whiteSpace=wrap;overflow=hidden;fontSize=14;fontStyle=0;fontColor=#009900;" parent="1" vertex="1">
                    <mxGeometry x="86.25" y="795" width="202.25" height="20" as="geometry"/>
                </mxCell>
                <mxCell id="9hBKPDzoitwpIBdzFDQ7-39" value="Tag: 1.0.0" style="text;html=1;strokeColor=none;fillColor=none;align=center;verticalAlign=middle;whiteSpace=wrap;overflow=hidden;fontSize=14;" parent="1" vertex="1">
                    <mxGeometry x="248.38" y="660" width="70" height="20" as="geometry"/>
                </mxCell>
                <mxCell id="9hBKPDzoitwpIBdzFDQ7-44" value="Tag: 1.1.0" style="text;html=1;strokeColor=none;fillColor=none;align=center;verticalAlign=middle;whiteSpace=wrap;overflow=hidden;fontSize=14;" parent="1" vertex="1">
                    <mxGeometry x="644.5" y="660" width="70" height="20" as="geometry"/>
                </mxCell>
                <UserObject label="&lt;a href=&quot;https://www.endoflineblog.com/oneflow-a-git-branching-model-and-workflow&quot;&gt;https://www.endoflineblog.com/oneflow-a-git-branching-model-and-workflow&lt;/a&gt;" link="https://www.endoflineblog.com/oneflow-a-git-branching-model-and-workflow" id="9hBKPDzoitwpIBdzFDQ7-45">
                    <mxCell style="text;whiteSpace=wrap;html=1;" parent="1" vertex="1">
                        <mxGeometry x="444.5" y="610" width="413.75" height="20" as="geometry"/>
                    </mxCell>
                </UserObject>
                <UserObject label="or" link="https://nvie.com/posts/a-successful-git-branching-model/" id="9hBKPDzoitwpIBdzFDQ7-46">
                    <mxCell style="text;whiteSpace=wrap;html=1;" parent="1" vertex="1">
                        <mxGeometry x="420.62" y="610" width="11.63" height="20" as="geometry"/>
                    </mxCell>
                </UserObject>
                <mxCell id="9hBKPDzoitwpIBdzFDQ7-54" value="" style="edgeStyle=orthogonalEdgeStyle;curved=1;rounded=0;orthogonalLoop=1;jettySize=auto;html=1;endArrow=none;endFill=0;strokeWidth=4;fontFamily=Courier New;fontSize=16;entryX=0;entryY=0.5;entryDx=0;entryDy=0;entryPerimeter=0;" parent="1" source="9hBKPDzoitwpIBdzFDQ7-50" target="9hBKPDzoitwpIBdzFDQ7-55" edge="1">
                    <mxGeometry relative="1" as="geometry">
                        <mxPoint x="892.25" y="780" as="targetPoint"/>
                    </mxGeometry>
                </mxCell>
                <mxCell id="9hBKPDzoitwpIBdzFDQ7-50" value="" style="verticalLabelPosition=bottom;verticalAlign=top;html=1;strokeWidth=4;shape=mxgraph.flowchart.on-page_reference;plain-blue;gradientColor=#EA6B66;strokeColor=#B85450;fillColor=#F8CECC;" parent="1" vertex="1">
                    <mxGeometry x="769" y="765" width="30" height="30" as="geometry"/>
                </mxCell>
                <mxCell id="9hBKPDzoitwpIBdzFDQ7-58" value="Hotfix Commit" style="text;html=1;strokeColor=none;fillColor=none;align=center;verticalAlign=middle;whiteSpace=wrap;overflow=hidden;" parent="1" vertex="1">
                    <mxGeometry x="749.5" y="790" width="80" height="30" as="geometry"/>
                </mxCell>
                <mxCell id="9hBKPDzoitwpIBdzFDQ7-59" value="Tag: 1.1.1" style="text;html=1;strokeColor=none;fillColor=none;align=center;verticalAlign=middle;whiteSpace=wrap;overflow=hidden;fontSize=14;" parent="1" vertex="1">
                    <mxGeometry x="746.75" y="740" width="70" height="20" as="geometry"/>
                </mxCell>
                <mxCell id="9hBKPDzoitwpIBdzFDQ7-60" value="Tag: 1.2.0" style="text;html=1;strokeColor=none;fillColor=none;align=center;verticalAlign=middle;whiteSpace=wrap;overflow=hidden;fontSize=14;" parent="1" vertex="1">
                    <mxGeometry x="852.25" y="660" width="70" height="20" as="geometry"/>
                </mxCell>
                <mxCell id="9hBKPDzoitwpIBdzFDQ7-61" value="Tag: 1.0.1" style="text;html=1;strokeColor=none;fillColor=none;align=center;verticalAlign=middle;whiteSpace=wrap;overflow=hidden;fontSize=14;" parent="1" vertex="1">
                    <mxGeometry x="428.5" y="170" width="70" height="20" as="geometry"/>
                </mxCell>
            </root>
        </mxGraphModel>
    </diagram>
    <diagram id="6bqh3qF1CrA5Jk42bkY_" name="Page-2">
        <mxGraphModel dx="532" dy="744" grid="1" gridSize="10" guides="1" tooltips="1" connect="1" arrows="1" fold="1" page="1" pageScale="1" pageWidth="850" pageHeight="1100" math="0" shadow="0">
            <root>
                <mxCell id="0"/>
                <mxCell id="1" parent="0"/>
                <mxCell id="1x6lIbU-B9COB1gGTvId-1" value="initial commit" style="ellipse;whiteSpace=wrap;html=1;aspect=fixed;fillColor=#dae8fc;strokeColor=#6c8ebf;fontStyle=1;labelPosition=center;verticalLabelPosition=top;align=center;verticalAlign=bottom;fontColor=#000000;" vertex="1" parent="1">
                    <mxGeometry x="11" y="312" width="20" height="20" as="geometry"/>
                </mxCell>
                <mxCell id="1x6lIbU-B9COB1gGTvId-2" value="main" style="text;html=1;strokeColor=#6c8ebf;fillColor=#dae8fc;align=center;verticalAlign=middle;whiteSpace=wrap;rounded=0;fontColor=#000000;" vertex="1" parent="1">
                    <mxGeometry x="749" y="311" width="90" height="20" as="geometry"/>
                </mxCell>
                <mxCell id="1x6lIbU-B9COB1gGTvId-3" value="" style="endArrow=none;dashed=1;html=1;fillColor=#dae8fc;strokeColor=#6c8ebf;rounded=0;endFill=0;fontColor=#000000;entryX=0;entryY=0.5;entryDx=0;entryDy=0;" edge="1" parent="1" source="1x6lIbU-B9COB1gGTvId-10" target="1x6lIbU-B9COB1gGTvId-2">
                    <mxGeometry width="50" height="50" relative="1" as="geometry">
                        <mxPoint x="31" y="322" as="sourcePoint"/>
                        <mxPoint x="440" y="321.00000000000006" as="targetPoint"/>
                    </mxGeometry>
                </mxCell>
                <mxCell id="1x6lIbU-B9COB1gGTvId-4" value="Hotfix" style="text;html=1;strokeColor=#b85450;fillColor=#f8cecc;align=center;verticalAlign=middle;whiteSpace=wrap;rounded=0;fontColor=#000000;" vertex="1" parent="1">
                    <mxGeometry x="749" y="341" width="90" height="20" as="geometry"/>
                </mxCell>
                <mxCell id="1x6lIbU-B9COB1gGTvId-5" value="Integration" style="text;html=1;strokeColor=#82b366;fillColor=#d5e8d4;align=center;verticalAlign=middle;whiteSpace=wrap;rounded=0;fontColor=#000000;" vertex="1" parent="1">
                    <mxGeometry x="750" y="421" width="90" height="20" as="geometry"/>
                </mxCell>
                <mxCell id="1x6lIbU-B9COB1gGTvId-6" value="" style="ellipse;whiteSpace=wrap;html=1;aspect=fixed;fillColor=#d5e8d4;strokeColor=#82b366;fontColor=#000000;" vertex="1" parent="1">
                    <mxGeometry x="102" y="421" width="20" height="20" as="geometry"/>
                </mxCell>
                <mxCell id="1x6lIbU-B9COB1gGTvId-7" style="edgeStyle=orthogonalEdgeStyle;rounded=1;orthogonalLoop=1;jettySize=auto;html=1;dashed=1;endArrow=none;endFill=0;fillColor=#d5e8d4;strokeColor=#82b366;fontColor=#000000;exitX=0.5;exitY=1;exitDx=0;exitDy=0;" edge="1" parent="1" source="1x6lIbU-B9COB1gGTvId-10" target="1x6lIbU-B9COB1gGTvId-6">
                    <mxGeometry relative="1" as="geometry">
                        <mxPoint x="661" y="432" as="targetPoint"/>
                        <mxPoint x="81" y="432" as="sourcePoint"/>
                        <Array as="points">
                            <mxPoint x="83" y="332"/>
                            <mxPoint x="83" y="431"/>
                        </Array>
                    </mxGeometry>
                </mxCell>
                <mxCell id="1x6lIbU-B9COB1gGTvId-8" value="" style="ellipse;whiteSpace=wrap;html=1;aspect=fixed;fillColor=#d5e8d4;strokeColor=#82b366;fontColor=#000000;" vertex="1" parent="1">
                    <mxGeometry x="231" y="421" width="20" height="20" as="geometry"/>
                </mxCell>
                <mxCell id="1x6lIbU-B9COB1gGTvId-9" style="edgeStyle=orthogonalEdgeStyle;rounded=0;orthogonalLoop=1;jettySize=auto;html=1;dashed=1;endArrow=none;endFill=0;fillColor=#d5e8d4;strokeColor=#82B366;fontColor=#000000;" edge="1" parent="1" source="1x6lIbU-B9COB1gGTvId-6" target="1x6lIbU-B9COB1gGTvId-8">
                    <mxGeometry relative="1" as="geometry">
                        <mxPoint x="661" y="432" as="targetPoint"/>
                        <mxPoint x="221" y="432" as="sourcePoint"/>
                    </mxGeometry>
                </mxCell>
                <mxCell id="1x6lIbU-B9COB1gGTvId-10" value="v2024.06" style="ellipse;whiteSpace=wrap;html=1;aspect=fixed;fillColor=#dae8fc;strokeColor=#6c8ebf;fontStyle=1;labelPosition=center;verticalLabelPosition=top;align=center;verticalAlign=bottom;fontColor=#000000;" vertex="1" parent="1">
                    <mxGeometry x="71" y="312" width="20" height="20" as="geometry"/>
                </mxCell>
                <mxCell id="1x6lIbU-B9COB1gGTvId-11" value="" style="endArrow=none;dashed=1;html=1;fillColor=#dae8fc;strokeColor=#6c8ebf;rounded=0;endFill=0;fontColor=#000000;" edge="1" parent="1" source="1x6lIbU-B9COB1gGTvId-1" target="1x6lIbU-B9COB1gGTvId-10">
                    <mxGeometry width="50" height="50" relative="1" as="geometry">
                        <mxPoint x="30.9999999999917" y="322" as="sourcePoint"/>
                        <mxPoint x="671" y="322" as="targetPoint"/>
                        <Array as="points"/>
                    </mxGeometry>
                </mxCell>
                <mxCell id="1x6lIbU-B9COB1gGTvId-12" value="Release" style="text;html=1;strokeColor=#d79b00;fillColor=#ffe6cc;align=center;verticalAlign=middle;whiteSpace=wrap;rounded=0;fontSize=12;fontColor=#000000;" vertex="1" parent="1">
                    <mxGeometry x="749" y="371" width="90" height="20" as="geometry"/>
                </mxCell>
                <mxCell id="1x6lIbU-B9COB1gGTvId-13" value="Porting MESA To Torizon" style="text;html=1;strokeColor=#9673a6;fillColor=#e1d5e7;align=center;verticalAlign=middle;whiteSpace=wrap;rounded=0;fontColor=#000000;" vertex="1" parent="1">
                    <mxGeometry x="752" y="447" width="87" height="27" as="geometry"/>
                </mxCell>
                <mxCell id="1x6lIbU-B9COB1gGTvId-14" value="aux_meba" style="text;html=1;strokeColor=#9673a6;fillColor=#e1d5e7;align=center;verticalAlign=middle;whiteSpace=wrap;rounded=0;fontColor=#000000;" vertex="1" parent="1">
                    <mxGeometry x="752" y="496" width="87" height="20" as="geometry"/>
                </mxCell>
                <mxCell id="1x6lIbU-B9COB1gGTvId-15" style="edgeStyle=orthogonalEdgeStyle;rounded=1;orthogonalLoop=1;jettySize=auto;html=1;dashed=1;endArrow=classic;endFill=1;fontSize=12;fontColor=#000000;fillColor=#e1d5e7;strokeColor=#9673A6;exitX=0.5;exitY=1;exitDx=0;exitDy=0;entryX=0;entryY=0.5;entryDx=0;entryDy=0;" edge="1" parent="1" source="1x6lIbU-B9COB1gGTvId-6" target="1x6lIbU-B9COB1gGTvId-17">
                    <mxGeometry relative="1" as="geometry">
                        <Array as="points">
                            <mxPoint x="112" y="459"/>
                        </Array>
                        <mxPoint x="138" y="464" as="sourcePoint"/>
                        <mxPoint x="117" y="462" as="targetPoint"/>
                    </mxGeometry>
                </mxCell>
                <mxCell id="1x6lIbU-B9COB1gGTvId-16" value="Release Fixes" style="text;html=1;strokeColor=#d79b00;fillColor=#ffe6cc;align=center;verticalAlign=middle;whiteSpace=wrap;rounded=0;fontSize=12;fontColor=#000000;" vertex="1" parent="1">
                    <mxGeometry x="749" y="391" width="90" height="20" as="geometry"/>
                </mxCell>
                <mxCell id="1x6lIbU-B9COB1gGTvId-17" value="" style="ellipse;whiteSpace=wrap;html=1;aspect=fixed;fontSize=12;fillColor=#e1d5e7;strokeColor=#9673a6;fontColor=#000000;" vertex="1" parent="1">
                    <mxGeometry x="129" y="449" width="20" height="20" as="geometry"/>
                </mxCell>
                <mxCell id="1x6lIbU-B9COB1gGTvId-18" value="" style="ellipse;whiteSpace=wrap;html=1;aspect=fixed;fontSize=12;fillColor=#e1d5e7;strokeColor=#9673a6;fontColor=#000000;" vertex="1" parent="1">
                    <mxGeometry x="155" y="449" width="20" height="20" as="geometry"/>
                </mxCell>
                <mxCell id="1x6lIbU-B9COB1gGTvId-19" value="" style="ellipse;whiteSpace=wrap;html=1;aspect=fixed;fontSize=12;fillColor=#e1d5e7;strokeColor=#9673a6;fontColor=#000000;" vertex="1" parent="1">
                    <mxGeometry x="184" y="449" width="20" height="20" as="geometry"/>
                </mxCell>
                <mxCell id="1x6lIbU-B9COB1gGTvId-20" value="" style="edgeStyle=orthogonalEdgeStyle;rounded=1;orthogonalLoop=1;jettySize=auto;html=1;dashed=1;endArrow=none;endFill=0;fontSize=12;fontColor=#000000;fillColor=#e1d5e7;strokeColor=#9673a6;exitX=1;exitY=0.5;exitDx=0;exitDy=0;entryX=0;entryY=0.5;entryDx=0;entryDy=0;" edge="1" parent="1" source="1x6lIbU-B9COB1gGTvId-18" target="1x6lIbU-B9COB1gGTvId-19">
                    <mxGeometry relative="1" as="geometry">
                        <mxPoint x="224" y="460.9" as="sourcePoint"/>
                        <mxPoint x="251" y="460.9" as="targetPoint"/>
                        <Array as="points"/>
                    </mxGeometry>
                </mxCell>
                <mxCell id="1x6lIbU-B9COB1gGTvId-21" value="" style="ellipse;whiteSpace=wrap;html=1;aspect=fixed;fontSize=12;fillColor=#e1d5e7;strokeColor=#9673a6;fontColor=#000000;" vertex="1" parent="1">
                    <mxGeometry x="216" y="449" width="20" height="20" as="geometry"/>
                </mxCell>
                <mxCell id="1x6lIbU-B9COB1gGTvId-22" value="" style="edgeStyle=orthogonalEdgeStyle;rounded=1;orthogonalLoop=1;jettySize=auto;html=1;dashed=1;endArrow=none;endFill=0;fontSize=12;fontColor=#000000;fillColor=#e1d5e7;strokeColor=#9673a6;exitX=1;exitY=0.5;exitDx=0;exitDy=0;entryX=0;entryY=0.5;entryDx=0;entryDy=0;" edge="1" parent="1" source="1x6lIbU-B9COB1gGTvId-19" target="1x6lIbU-B9COB1gGTvId-21">
                    <mxGeometry relative="1" as="geometry">
                        <mxPoint x="271" y="460.92" as="sourcePoint"/>
                        <mxPoint x="293" y="460.92" as="targetPoint"/>
                        <Array as="points"/>
                    </mxGeometry>
                </mxCell>
                <mxCell id="1x6lIbU-B9COB1gGTvId-23" value="" style="edgeStyle=orthogonalEdgeStyle;rounded=1;orthogonalLoop=1;jettySize=auto;html=1;dashed=1;endArrow=none;endFill=0;fontSize=12;fontColor=#000000;fillColor=#e1d5e7;strokeColor=#9673a6;exitX=1;exitY=0.5;exitDx=0;exitDy=0;entryX=0;entryY=0.5;entryDx=0;entryDy=0;" edge="1" parent="1" source="1x6lIbU-B9COB1gGTvId-17" target="1x6lIbU-B9COB1gGTvId-18">
                    <mxGeometry relative="1" as="geometry">
                        <mxPoint x="134" y="458.92" as="sourcePoint"/>
                        <mxPoint x="152" y="458.92" as="targetPoint"/>
                        <Array as="points"/>
                    </mxGeometry>
                </mxCell>
                <mxCell id="1x6lIbU-B9COB1gGTvId-24" style="edgeStyle=orthogonalEdgeStyle;orthogonalLoop=1;jettySize=auto;html=1;exitX=1;exitY=0.5;exitDx=0;exitDy=0;entryX=0.578;entryY=0.984;entryDx=0;entryDy=0;entryPerimeter=0;rounded=1;strokeColor=#9673A6;dashed=1;fontColor=#000000;" edge="1" parent="1" source="1x6lIbU-B9COB1gGTvId-21" target="1x6lIbU-B9COB1gGTvId-8">
                    <mxGeometry relative="1" as="geometry"/>
                </mxCell>
                <mxCell id="1x6lIbU-B9COB1gGTvId-25" style="edgeStyle=orthogonalEdgeStyle;rounded=1;orthogonalLoop=1;jettySize=auto;html=1;exitX=1;exitY=0.5;exitDx=0;exitDy=0;dashed=1;strokeColor=#9673A6;endArrow=none;endFill=0;fontColor=#000000;" edge="1" parent="1" source="1x6lIbU-B9COB1gGTvId-8" target="1x6lIbU-B9COB1gGTvId-27">
                    <mxGeometry relative="1" as="geometry">
                        <mxPoint x="283" y="524" as="sourcePoint"/>
                        <Array as="points">
                            <mxPoint x="266" y="431"/>
                            <mxPoint x="266" y="524"/>
                        </Array>
                    </mxGeometry>
                </mxCell>
                <mxCell id="1x6lIbU-B9COB1gGTvId-26" style="edgeStyle=orthogonalEdgeStyle;rounded=0;html=1;exitX=1;exitY=0.5;exitDx=0;exitDy=0;entryX=0;entryY=0.5;entryDx=0;entryDy=0;dashed=1;strokeColor=#9673A6;fontSize=13;fontColor=#990000;endArrow=none;endFill=0;" edge="1" parent="1" source="1x6lIbU-B9COB1gGTvId-27" target="1x6lIbU-B9COB1gGTvId-31">
                    <mxGeometry relative="1" as="geometry"/>
                </mxCell>
                <mxCell id="1x6lIbU-B9COB1gGTvId-27" value="" style="ellipse;whiteSpace=wrap;html=1;aspect=fixed;fontSize=12;fillColor=#e1d5e7;strokeColor=#9673a6;fontColor=#000000;" vertex="1" parent="1">
                    <mxGeometry x="281" y="513" width="20" height="20" as="geometry"/>
                </mxCell>
                <mxCell id="1x6lIbU-B9COB1gGTvId-28" value="microchip-mirror-master" style="text;html=1;strokeColor=#6c8ebf;fillColor=#dae8fc;align=center;verticalAlign=middle;whiteSpace=wrap;rounded=0;fontColor=#000000;" vertex="1" parent="1">
                    <mxGeometry x="746" y="240" width="90" height="33" as="geometry"/>
                </mxCell>
                <mxCell id="1x6lIbU-B9COB1gGTvId-29" value="" style="endArrow=none;dashed=1;html=1;fillColor=#dae8fc;strokeColor=#6c8ebf;rounded=1;endFill=0;fontColor=#000000;entryX=0;entryY=0.5;entryDx=0;entryDy=0;edgeStyle=orthogonalEdgeStyle;exitX=0.5;exitY=0;exitDx=0;exitDy=0;" edge="1" parent="1" source="1x6lIbU-B9COB1gGTvId-10" target="1x6lIbU-B9COB1gGTvId-28">
                    <mxGeometry width="50" height="50" relative="1" as="geometry">
                        <mxPoint x="78" y="289" as="sourcePoint"/>
                        <mxPoint x="437" y="263.00000000000006" as="targetPoint"/>
                    </mxGeometry>
                </mxCell>
                <mxCell id="1x6lIbU-B9COB1gGTvId-30" style="edgeStyle=orthogonalEdgeStyle;rounded=0;html=1;exitX=1;exitY=0.5;exitDx=0;exitDy=0;entryX=0;entryY=0.5;entryDx=0;entryDy=0;dashed=1;strokeColor=#9673A6;fontSize=13;fontColor=#990000;endArrow=none;endFill=0;" edge="1" parent="1" source="1x6lIbU-B9COB1gGTvId-31" target="1x6lIbU-B9COB1gGTvId-33">
                    <mxGeometry relative="1" as="geometry"/>
                </mxCell>
                <mxCell id="1x6lIbU-B9COB1gGTvId-31" value="&lt;font color=&quot;#9673a6&quot; style=&quot;font-size: 13px;&quot;&gt;xxxx&lt;/font&gt;" style="text;html=1;strokeColor=#9673A6;fillColor=none;align=left;verticalAlign=middle;whiteSpace=wrap;rounded=0;fontColor=#000000;" vertex="1" parent="1">
                    <mxGeometry x="309" y="516" width="29" height="14" as="geometry"/>
                </mxCell>
                <mxCell id="1x6lIbU-B9COB1gGTvId-32" style="edgeStyle=orthogonalEdgeStyle;rounded=1;html=1;exitX=1;exitY=0.5;exitDx=0;exitDy=0;entryX=0.5;entryY=1;entryDx=0;entryDy=0;dashed=1;strokeColor=#9673A6;fontSize=13;fontColor=#9673A6;endArrow=none;endFill=0;" edge="1" parent="1" source="1x6lIbU-B9COB1gGTvId-33" target="1x6lIbU-B9COB1gGTvId-36">
                    <mxGeometry relative="1" as="geometry"/>
                </mxCell>
                <mxCell id="1x6lIbU-B9COB1gGTvId-33" value="" style="ellipse;whiteSpace=wrap;html=1;aspect=fixed;fontSize=12;fillColor=#e1d5e7;strokeColor=#9673a6;fontColor=#000000;" vertex="1" parent="1">
                    <mxGeometry x="348" y="514" width="20" height="20" as="geometry"/>
                </mxCell>
                <mxCell id="1x6lIbU-B9COB1gGTvId-34" value="" style="edgeStyle=orthogonalEdgeStyle;rounded=0;html=1;exitX=1;exitY=0.5;exitDx=0;exitDy=0;entryX=0;entryY=0.5;entryDx=0;entryDy=0;fontColor=#000000;dashed=1;endArrow=none;endFill=0;strokeColor=#82B366;" edge="1" parent="1" source="1x6lIbU-B9COB1gGTvId-8" target="1x6lIbU-B9COB1gGTvId-36">
                    <mxGeometry relative="1" as="geometry">
                        <mxPoint x="251" y="431" as="sourcePoint"/>
                        <mxPoint x="752" y="431" as="targetPoint"/>
                    </mxGeometry>
                </mxCell>
                <mxCell id="1x6lIbU-B9COB1gGTvId-35" style="edgeStyle=orthogonalEdgeStyle;rounded=1;html=1;exitX=1;exitY=0.5;exitDx=0;exitDy=0;entryX=0;entryY=0.5;entryDx=0;entryDy=0;dashed=1;strokeColor=#B083BF;fontSize=13;fontColor=#9673A6;endArrow=none;endFill=0;" edge="1" parent="1" source="1x6lIbU-B9COB1gGTvId-36" target="1x6lIbU-B9COB1gGTvId-46">
                    <mxGeometry relative="1" as="geometry">
                        <Array as="points">
                            <mxPoint x="393" y="431"/>
                            <mxPoint x="393" y="591"/>
                        </Array>
                    </mxGeometry>
                </mxCell>
                <mxCell id="1x6lIbU-B9COB1gGTvId-36" value="" style="ellipse;whiteSpace=wrap;html=1;aspect=fixed;fillColor=#d5e8d4;strokeColor=#82b366;fontColor=#000000;" vertex="1" parent="1">
                    <mxGeometry x="370" y="421" width="20" height="20" as="geometry"/>
                </mxCell>
                <mxCell id="1x6lIbU-B9COB1gGTvId-37" value="" style="edgeStyle=orthogonalEdgeStyle;rounded=0;html=1;exitX=1;exitY=0.5;exitDx=0;exitDy=0;entryX=0;entryY=0.5;entryDx=0;entryDy=0;fontColor=#000000;dashed=1;endArrow=none;endFill=0;strokeColor=#82B366;startArrow=none;" edge="1" parent="1" source="1x6lIbU-B9COB1gGTvId-36" target="1x6lIbU-B9COB1gGTvId-5">
                    <mxGeometry relative="1" as="geometry">
                        <mxPoint x="446" y="431" as="sourcePoint"/>
                        <mxPoint x="552" y="431" as="targetPoint"/>
                    </mxGeometry>
                </mxCell>
                <mxCell id="1x6lIbU-B9COB1gGTvId-38" style="edgeStyle=orthogonalEdgeStyle;rounded=1;orthogonalLoop=1;jettySize=auto;html=1;exitX=1;exitY=0.5;exitDx=0;exitDy=0;dashed=1;strokeColor=#9673A6;endArrow=none;endFill=0;fontColor=#000000;" edge="1" parent="1" source="1x6lIbU-B9COB1gGTvId-36" target="1x6lIbU-B9COB1gGTvId-40">
                    <mxGeometry relative="1" as="geometry">
                        <mxPoint x="432" y="457" as="sourcePoint"/>
                        <Array as="points">
                            <mxPoint x="405" y="431"/>
                            <mxPoint x="405" y="550"/>
                        </Array>
                    </mxGeometry>
                </mxCell>
                <mxCell id="1x6lIbU-B9COB1gGTvId-39" style="edgeStyle=orthogonalEdgeStyle;rounded=1;html=1;exitX=1;exitY=0.5;exitDx=0;exitDy=0;entryX=0;entryY=0.5;entryDx=0;entryDy=0;dashed=1;strokeColor=#B083BF;fontSize=13;fontColor=#9673A6;endArrow=none;endFill=0;" edge="1" parent="1" source="1x6lIbU-B9COB1gGTvId-40" target="1x6lIbU-B9COB1gGTvId-42">
                    <mxGeometry relative="1" as="geometry"/>
                </mxCell>
                <mxCell id="1x6lIbU-B9COB1gGTvId-40" value="" style="ellipse;whiteSpace=wrap;html=1;aspect=fixed;fontSize=12;fillColor=#fa6800;strokeColor=#C73500;fontColor=#000000;" vertex="1" parent="1">
                    <mxGeometry x="421" y="539.5" width="20" height="20" as="geometry"/>
                </mxCell>
                <mxCell id="1x6lIbU-B9COB1gGTvId-41" style="edgeStyle=orthogonalEdgeStyle;rounded=1;html=1;exitX=1;exitY=0.5;exitDx=0;exitDy=0;entryX=0;entryY=0.5;entryDx=0;entryDy=0;dashed=1;strokeColor=#B083BF;fontSize=13;fontColor=#9673A6;endArrow=none;endFill=0;" edge="1" parent="1" source="1x6lIbU-B9COB1gGTvId-42" target="1x6lIbU-B9COB1gGTvId-43">
                    <mxGeometry relative="1" as="geometry"/>
                </mxCell>
                <mxCell id="1x6lIbU-B9COB1gGTvId-42" value="&lt;font color=&quot;#9673a6&quot; style=&quot;font-size: 13px;&quot;&gt;xxxx&lt;/font&gt;" style="text;html=1;strokeColor=#9673A6;fillColor=none;align=left;verticalAlign=middle;whiteSpace=wrap;rounded=0;fontColor=#000000;" vertex="1" parent="1">
                    <mxGeometry x="449" y="542.5" width="29" height="14" as="geometry"/>
                </mxCell>
                <mxCell id="1x6lIbU-B9COB1gGTvId-43" value="" style="ellipse;whiteSpace=wrap;html=1;aspect=fixed;fontSize=12;fillColor=#fa6800;strokeColor=#C73500;fontColor=#000000;" vertex="1" parent="1">
                    <mxGeometry x="488" y="540.5" width="20" height="20" as="geometry"/>
                </mxCell>
                <mxCell id="1x6lIbU-B9COB1gGTvId-44" value="&lt;font color=&quot;#fa6800&quot;&gt;external_phys&lt;/font&gt;" style="text;html=1;strokeColor=#C73500;fillColor=#e1d5e7;align=center;verticalAlign=middle;whiteSpace=wrap;rounded=0;fontColor=#000000;" vertex="1" parent="1">
                    <mxGeometry x="750.5" y="532" width="87" height="20" as="geometry"/>
                </mxCell>
                <mxCell id="1x6lIbU-B9COB1gGTvId-45" style="edgeStyle=orthogonalEdgeStyle;rounded=0;html=1;exitX=1;exitY=0.5;exitDx=0;exitDy=0;entryX=0;entryY=0.5;entryDx=0;entryDy=0;dashed=1;strokeColor=#9673A6;fontSize=13;fontColor=#990000;endArrow=none;endFill=0;" edge="1" parent="1" source="1x6lIbU-B9COB1gGTvId-46" target="1x6lIbU-B9COB1gGTvId-48">
                    <mxGeometry relative="1" as="geometry"/>
                </mxCell>
                <mxCell id="1x6lIbU-B9COB1gGTvId-46" value="" style="ellipse;whiteSpace=wrap;html=1;aspect=fixed;fontSize=12;fillColor=#994C00;strokeColor=#B09500;fontColor=#000000;" vertex="1" parent="1">
                    <mxGeometry x="421" y="581.05" width="20" height="20" as="geometry"/>
                </mxCell>
                <mxCell id="1x6lIbU-B9COB1gGTvId-47" style="edgeStyle=orthogonalEdgeStyle;rounded=0;html=1;exitX=1;exitY=0.5;exitDx=0;exitDy=0;entryX=0;entryY=0.5;entryDx=0;entryDy=0;dashed=1;strokeColor=#9673A6;fontSize=13;fontColor=#990000;endArrow=none;endFill=0;" edge="1" parent="1" source="1x6lIbU-B9COB1gGTvId-48" target="1x6lIbU-B9COB1gGTvId-49">
                    <mxGeometry relative="1" as="geometry"/>
                </mxCell>
                <mxCell id="1x6lIbU-B9COB1gGTvId-48" value="&lt;font color=&quot;#9673a6&quot; style=&quot;font-size: 13px;&quot;&gt;xxxx&lt;/font&gt;" style="text;html=1;strokeColor=#9673A6;fillColor=none;align=left;verticalAlign=middle;whiteSpace=wrap;rounded=0;fontColor=#000000;" vertex="1" parent="1">
                    <mxGeometry x="449" y="584.05" width="29" height="14" as="geometry"/>
                </mxCell>
                <mxCell id="1x6lIbU-B9COB1gGTvId-49" value="" style="ellipse;whiteSpace=wrap;html=1;aspect=fixed;fontSize=12;fillColor=#994C00;strokeColor=#B09500;fontColor=#000000;" vertex="1" parent="1">
                    <mxGeometry x="488" y="582.05" width="20" height="20" as="geometry"/>
                </mxCell>
                <mxCell id="1x6lIbU-B9COB1gGTvId-50" value="&lt;font color=&quot;#994c00&quot;&gt;fiber_ports&lt;/font&gt;" style="text;html=1;strokeColor=#B09500;fillColor=#e1d5e7;align=center;verticalAlign=middle;whiteSpace=wrap;rounded=0;fontColor=#000000;" vertex="1" parent="1">
                    <mxGeometry x="750" y="581.05" width="87" height="20" as="geometry"/>
                </mxCell>
            </root>
        </mxGraphModel>
    </diagram>
</mxfile>